<svg xmlns="http://www.w3.org/2000/svg" xmlns:xlink="http://www.w3.org/1999/xlink" width="158.74" height="3.7cm" viewBox="0 0 42 37">
  <defs>
    <linearGradient id="b">
      <stop offset="0" style="stop-color:#9e9e9e;stop-opacity:1"/>
      <stop offset="1" style="stop-color:#9e9e9e;stop-opacity:0"/>
    </linearGradient>
    <linearGradient id="d">
      <stop offset="0" style="stop-color:#ee73b4;stop-opacity:1"/>
      <stop offset="1" style="stop-color:#ee73b4;stop-opacity:0"/>
    </linearGradient>
    <linearGradient id="c">
      <stop offset="0" style="stop-color:#e21e30;stop-opacity:1"/>
      <stop offset="1" style="stop-color:#e21e30;stop-opacity:0"/>
    </linearGradient>
    <linearGradient id="a">
      <stop offset="0" style="stop-color:#808c50;stop-opacity:1"/>
      <stop offset="1" style="stop-color:#808c50;stop-opacity:0"/>
    </linearGradient>
    <linearGradient gradientTransform="matrix(1.51133 0 0 1 -31.826 0)" gradientUnits="userSpaceOnUse" y2="80.84" x2="88.241" y1="75.733" x1="88.3" id="e" xlink:href="#a"/>
    <linearGradient gradientTransform="matrix(1.3602 0 0 1 -239.357 -15.549)" gradientUnits="userSpaceOnUse" y2="80.84" x2="88.241" y1="75.733" x1="88.3" id="g" xlink:href="#a"/>
    <linearGradient gradientTransform="matrix(1.01876 0 0 1 -.57 -.08)" gradientUnits="userSpaceOnUse" y2="27.017" x2="31.418" y1="25.894" x1="31.421" id="j" xlink:href="#b"/>
    <linearGradient gradientTransform="matrix(1.01876 0 0 1 145.882 -.256)" gradientUnits="userSpaceOnUse" y2="27.017" x2="31.418" y1="25.894" x1="31.421" id="k" xlink:href="#b"/>
    <linearGradient gradientTransform="matrix(2.78295 0 0 1.00632 100.605 15.566)" gradientUnits="userSpaceOnUse" y2="27.017" x2="31.418" y1="25.894" x1="31.421" id="l" xlink:href="#b"/>
    <linearGradient gradientTransform="matrix(24.94606 0 0 1 -686.943 15.677)" gradientUnits="userSpaceOnUse" y2="27.017" x2="31.418" y1="25.894" x1="31.421" id="m" xlink:href="#b"/>
    <linearGradient gradientTransform="matrix(1.01876 0 0 1 -76.701 -12.878)" gradientUnits="userSpaceOnUse" y2="27.017" x2="31.418" y1="25.894" x1="31.421" id="n" xlink:href="#b"/>
    <linearGradient gradientTransform="matrix(1.01876 0 0 1 -76.69 -222.807)" gradientUnits="userSpaceOnUse" y2="27.017" x2="31.418" y1="25.894" x1="31.421" id="o" xlink:href="#b"/>
    <linearGradient gradientTransform="matrix(2.80468 0 0 .57143 -122.616 14.184)" gradientUnits="userSpaceOnUse" y2="27.017" x2="31.418" y1="25.894" x1="31.421" id="p" xlink:href="#b"/>
    <linearGradient gradientTransform="matrix(2.79402 0 0 .57143 -122.248 -49.359)" gradientUnits="userSpaceOnUse" y2="27.017" x2="31.418" y1="25.894" x1="31.421" id="q" xlink:href="#b"/>
    <linearGradient gradientTransform="matrix(2.82506 0 0 .57143 -123.145 160.636)" gradientUnits="userSpaceOnUse" y2="27.017" x2="31.418" y1="25.894" x1="31.421" id="r" xlink:href="#b"/>
    <linearGradient gradientTransform="matrix(2.83415 0 0 .57692 -123.46 -195.96)" gradientUnits="userSpaceOnUse" y2="27.017" x2="31.418" y1="25.894" x1="31.421" id="s" xlink:href="#b"/>
    <linearGradient gradientTransform="matrix(2.84131 0 0 1.00632 -69.315 15.575)" gradientUnits="userSpaceOnUse" y2="27.017" x2="31.418" y1="25.894" x1="31.421" id="t" xlink:href="#b"/>
    <linearGradient gradientTransform="matrix(1.61339 0 0 1.5324 -17.73 -22.076)" gradientUnits="userSpaceOnUse" y2="41.778" x2="29.232" y1="41.591" x1="28.92" id="u" xlink:href="#b"/>
    <linearGradient gradientTransform="matrix(1.61339 0 0 1.5324 128.721 -22.137)" gradientUnits="userSpaceOnUse" y2="41.778" x2="29.232" y1="41.591" x1="28.92" id="v" xlink:href="#b"/>
    <linearGradient gradientTransform="matrix(-1.61339 0 0 1.5324 227.73 -22.085)" gradientUnits="userSpaceOnUse" y2="41.778" x2="29.232" y1="41.591" x1="28.92" id="w" xlink:href="#b"/>
    <linearGradient gradientTransform="matrix(-1.61339 0 0 1.5324 81.263 -22.137)" gradientUnits="userSpaceOnUse" y2="41.778" x2="29.232" y1="41.591" x1="28.92" id="x" xlink:href="#b"/>
    <radialGradient spreadMethod="pad" gradientUnits="userSpaceOnUse" gradientTransform="matrix(.86397 -.51823 .51803 .93218 -82.677 47.855)" r="7.236" fy="107.973" fx="80.525" cy="107.973" cx="80.525" id="h" xlink:href="#c"/>
    <radialGradient gradientTransform="matrix(.59624 .60237 -.6071 .61336 83.2 29.457)" gradientUnits="userSpaceOnUse" r="4.536" fy="96.052" fx="30.363" cy="96.052" cx="30.363" id="i" xlink:href="#d"/>
  </defs>
  <g>
    <rect x="4.85" y="0" width="32.285" height="36.985" fill="#183442"/>
  </g>
  <g id="surface1" transform="translate(5 4)scale(2)">
    <path style=" stroke:none;fill-rule:nonzero;fill:rgb(52.941179%,75.294119%,42.745098%);fill-opacity:1;" d="M 3.578125 0.84375 C 4.273438 0.84375 4.96875 0.84375 5.683594 0.84375 C 5.683594 1.050781 5.683594 1.257812 5.683594 1.472656 C 5.894531 1.472656 6.101562 1.472656 6.316406 1.472656 C 6.316406 1.683594 6.316406 1.890625 6.316406 2.105469 C 6.523438 2.105469 6.734375 2.105469 6.949219 2.105469 C 6.949219 3.910156 6.949219 5.71875 6.949219 7.578125 C 7.15625 7.578125 7.363281 7.578125 7.578125 7.578125 C 7.578125 8.066406 7.578125 8.550781 7.578125 9.050781 C 8.066406 9.050781 8.550781 9.050781 9.050781 9.050781 C 9.050781 8.566406 9.050781 8.078125 9.050781 7.578125 C 9.261719 7.578125 9.46875 7.578125 9.683594 7.578125 C 9.683594 6.675781 9.683594 5.773438 9.683594 4.84375 C 9.476562 4.84375 9.265625 4.84375 9.050781 4.84375 C 9.050781 3.730469 9.050781 2.617188 9.050781 1.472656 C 9.261719 1.472656 9.46875 1.472656 9.683594 1.472656 C 9.683594 1.265625 9.683594 1.058594 9.683594 0.84375 C 10.585938 0.84375 11.492188 0.84375 12.421875 0.84375 C 12.421875 1.050781 12.421875 1.257812 12.421875 1.472656 C 12.628906 1.472656 12.839844 1.472656 13.050781 1.472656 C 13.050781 3.070312 13.050781 4.667969 13.050781 6.316406 C 12.84375 6.316406 12.636719 6.316406 12.421875 6.316406 C 12.421875 6.734375 12.421875 7.148438 12.421875 7.578125 C 12.210938 7.578125 12.003906 7.578125 11.789062 7.578125 C 11.789062 8.273438 11.789062 8.96875 11.789062 9.683594 C 11.582031 9.683594 11.371094 9.683594 11.15625 9.683594 C 11.15625 10.796875 11.15625 11.90625 11.15625 13.050781 C 10.878906 13.050781 10.601562 13.050781 10.316406 13.050781 C 10.316406 13.332031 10.316406 13.609375 10.316406 13.894531 C 9.898438 13.894531 9.480469 13.894531 9.050781 13.894531 C 9.050781 14.101562 9.050781 14.3125 9.050781 14.527344 C 8.148438 14.527344 7.246094 14.527344 6.316406 14.527344 C 6.316406 14.316406 6.316406 14.109375 6.316406 13.894531 C 6.105469 13.894531 5.898438 13.894531 5.683594 13.894531 C 5.683594 13.617188 5.683594 13.339844 5.683594 13.050781 C 5.40625 13.050781 5.128906 13.050781 4.84375 13.050781 C 4.84375 11.734375 4.84375 10.414062 4.84375 9.050781 C 4.632812 9.050781 4.425781 9.050781 4.210938 9.050781 C 4.210938 8.359375 4.210938 7.664062 4.210938 6.949219 C 4.003906 6.949219 3.792969 6.949219 3.578125 6.949219 C 3.578125 6.253906 3.578125 5.558594 3.578125 4.84375 C 3.371094 4.84375 3.160156 4.84375 2.949219 4.84375 C 2.949219 3.730469 2.949219 2.617188 2.949219 1.472656 C 3.15625 1.472656 3.363281 1.472656 3.578125 1.472656 C 3.578125 1.265625 3.578125 1.058594 3.578125 0.84375 Z M 3.578125 0.84375 "/>
    <path style=" stroke:none;fill-rule:nonzero;fill:rgb(87.843138%,97.254902%,81.176472%);fill-opacity:1;" d="M 9.683594 1.472656 C 10.171875 1.472656 10.65625 1.472656 11.15625 1.472656 C 11.15625 1.683594 11.15625 1.890625 11.15625 2.105469 C 10.878906 2.105469 10.601562 2.105469 10.316406 2.105469 C 10.316406 2.589844 10.316406 3.078125 10.316406 3.578125 C 10.105469 3.578125 9.898438 3.578125 9.683594 3.578125 C 9.683594 2.882812 9.683594 2.191406 9.683594 1.472656 Z M 9.683594 1.472656 "/>
    <path style=" stroke:none;fill-rule:nonzero;fill:rgb(87.843138%,97.254902%,81.176472%);fill-opacity:1;" d="M 3.578125 2.105469 C 3.789062 2.105469 3.996094 2.105469 4.210938 2.105469 C 4.210938 2.800781 4.210938 3.496094 4.210938 4.210938 C 4.003906 4.210938 3.792969 4.210938 3.578125 4.210938 C 3.578125 3.515625 3.578125 2.820312 3.578125 2.105469 Z M 3.578125 2.105469 "/>
  </g>
  <g transform="translate(27.758 26.469)scale(.23852)">
    <path transform="scale(.26458)" d="m72.639 8.66-5 7.694-7.006-4.924-3.387 8.074-8.088-4.39-2.701 8.995-8.694-2.736-.359 9.342-8.83.049 2.057 9.328-8.012 4.387 5.678 8.064-5.678 8.066 8.012 4.387-2.057 9.328 8.83.05.471 8.89 8.582-2.285 2.701 8.996 8.088-4.391 3.387 8.074 7.006-4.924 5 7.694 6.838-6.932 6.625 6.715 5-7.693 7.003 4.923 3.39-8.072 8.087 4.389 2.7-8.996 8.581 2.624.471-9.232 8.832-.049-2.059-9.326 8.014-4.386-5.527-7.85 5.527-7.848-8.014-4.386 2.059-9.327-8.832-.048-.47-9.007-8.583 2.4-2.699-8.997-8.088 4.389-3.389-8.073-7.003 4.924-5-7.693-6.625 6.715zM28.588 52.25q.013.324.033.646l-.193-.353zm101.512.125.091.168-.119.217q.016-.192.028-.385zM68.016 87.043q.3.055.601.107l-.404.034zm10.209.898q.56.025 1.123.04l.314-.008-.664.193z" style="fill:#19d095;fill-opacity:1;stroke:#19d095;stroke-width:.40045637;stroke-linecap:square;stroke-miterlimit:2.20000005;stroke-dasharray:none;stroke-opacity:1;paint-order:fill markers stroke"/>
    <ellipse ry="8.488" rx="12.24" cy="13.816" cx="20.952" style="fill:#fffefa;fill-opacity:1;stroke:#fffefa;stroke-width:.13883899;stroke-linecap:square;stroke-miterlimit:2.20000005;stroke-dasharray:none;stroke-opacity:1;paint-order:fill markers stroke"/>
    <ellipse ry="7.946" rx="11.586" cy="13.845" cx="20.942" style="fill:#19d095;fill-opacity:1;stroke:#19d095;stroke-width:.13069761;stroke-linecap:square;stroke-miterlimit:2.20000005;stroke-dasharray:none;stroke-opacity:1;paint-order:fill markers stroke"/>
    <ellipse ry="7.506" rx="11.178" cy="13.836" cx="20.942" style="fill:#fffefa;fill-opacity:1;stroke:#fffefa;stroke-width:.12476718;stroke-linecap:square;stroke-miterlimit:2.20000005;stroke-dasharray:none;stroke-opacity:1;paint-order:fill markers stroke"/>
    <rect ry="2.447" y="11.598" x="11.16" height="4.894" width="19.466" style="fill:#19d095;fill-opacity:1;stroke:#19d095;stroke-width:.07676018;stroke-linecap:square;stroke-miterlimit:2.20000005;stroke-dasharray:none;stroke-opacity:1;paint-order:fill markers stroke"/>
    <rect ry="1.808" y="12.223" x="11.776" height="3.617" width="18.186" style="fill:#fff;fill-opacity:1;stroke:#fff;stroke-width:.06378328;stroke-linecap:square;stroke-miterlimit:2.20000005;stroke-dasharray:none;stroke-opacity:1;paint-order:fill markers stroke"/>
    <text transform="scale(1.00001 .99999)" y="15.072" x="13.607" style="font-style:normal;font-variant:normal;font-weight:700;font-stretch:normal;font-size:2.93995976px;line-height:1.25;font-family:Arial;-inkscape-font-specification:&quot;Arial, Bold&quot;;font-variant-ligatures:normal;font-variant-caps:normal;font-variant-numeric:normal;font-feature-settings:normal;text-align:start;letter-spacing:0;word-spacing:0;writing-mode:lr-tb;text-anchor:start;display:inline;fill:#19d095;fill-opacity:1;stroke:none;stroke-width:.02863597" xml:space="preserve"><tspan style="font-style:normal;font-variant:normal;font-weight:700;font-stretch:normal;font-size:2.93995976px;font-family:Arial;-inkscape-font-specification:&quot;Arial, Bold&quot;;font-variant-ligatures:normal;font-variant-caps:normal;font-variant-numeric:normal;font-feature-settings:normal;text-align:start;writing-mode:lr-tb;text-anchor:start;fill:#19d095;fill-opacity:1;stroke-width:.02863597" y="15.072" x="13.607">VoltaTECH</tspan></text>
    <text transform="scale(1.00001 .99999)" y="10.456" x="15.922" style="font-style:normal;font-variant:normal;font-weight:700;font-stretch:normal;font-size:2.93994427px;line-height:1.25;font-family:Arial;-inkscape-font-specification:&quot;Arial, Bold&quot;;font-variant-ligatures:normal;font-variant-caps:normal;font-variant-numeric:normal;font-feature-settings:normal;text-align:start;letter-spacing:0;word-spacing:0;writing-mode:lr-tb;text-anchor:start;display:inline;fill:#19d095;fill-opacity:1;stroke:none;stroke-width:.02863597" xml:space="preserve"><tspan y="10.456" x="15.922">Official</tspan></text>
    <text transform="scale(1.00001 .99999)" y="19.577" x="17.877" style="font-style:normal;font-variant:normal;font-weight:700;font-stretch:normal;font-size:2.93994427px;line-height:1.25;font-family:Arial;-inkscape-font-specification:&quot;Arial, Bold&quot;;font-variant-ligatures:normal;font-variant-caps:normal;font-variant-numeric:normal;font-feature-settings:normal;text-align:start;letter-spacing:0;word-spacing:0;writing-mode:lr-tb;text-anchor:start;display:inline;fill:#19d095;fill-opacity:1;stroke:none;stroke-width:.02863597" xml:space="preserve"><tspan y="19.577" x="17.077">ROM</tspan></text>
  </g>
  <g style="display:inline">
    <path style="fill:#8e8e8e;fill-opacity:1;stroke:#8e8e8e;stroke-width:.07690866;stroke-opacity:1" d="M.999 333.039c-.5.003-.962.46-.96.962v34.997c-.002.502.46.96.96.963h3.85l-.01-18.436.01-18.487H2.435z" transform="translate(0 -333)"/>
    <path style="display:inline;fill:#8e8e8e;fill-opacity:1;stroke:#8e8e8e;stroke-width:.07690866;stroke-opacity:1" d="M41.01 333.025c.5.003.962.461.96.963v34.997c.002.502-.46.959-.96.962h-3.85l.01-16.97v-1.465l-.01-18.487h2.415z" transform="translate(0 -333)"/>
  </g>
  <g style="display:inline">
    <text xml:space="preserve" style="font-style:normal;font-variant:normal;font-weight:400;font-stretch:normal;font-size:1.58747149px;line-height:1.25;font-family:sans-serif;-inkscape-font-specification:&quot;sans-serif, Normal&quot;;font-variant-ligatures:normal;font-variant-caps:normal;font-variant-numeric:normal;font-feature-settings:normal;text-align:start;letter-spacing:0;word-spacing:0;writing-mode:lr-tb;text-anchor:start;display:inline;fill:#000;fill-opacity:1;stroke:none;stroke-width:.02645786" x="-357.82" y="40.125" transform="matrix(0 -.99999 1.00001 0 0 -333)"><tspan x="-357.82" y="40.125" style="font-style:normal;font-variant:normal;font-weight:400;font-stretch:normal;font-size:1.58747149px;font-family:sans-serif;-inkscape-font-specification:&quot;sans-serif, Normal&quot;;font-variant-ligatures:normal;font-variant-caps:normal;font-variant-numeric:normal;font-feature-settings:normal;text-align:start;writing-mode:lr-tb;text-anchor:start;stroke-width:.02645786">THIS SIDE OUT</tspan></text>
    <text xml:space="preserve" style="font-style:normal;font-variant:normal;font-weight:400;font-stretch:normal;font-size:1.58747149px;line-height:1.25;font-family:sans-serif;-inkscape-font-specification:&quot;sans-serif, Normal&quot;;font-variant-ligatures:normal;font-variant-caps:normal;font-variant-numeric:normal;font-feature-settings:normal;text-align:start;letter-spacing:0;word-spacing:0;writing-mode:lr-tb;text-anchor:start;display:inline;fill:#000;fill-opacity:1;stroke:none;stroke-width:.02645786" x="333.884" y="-1.822" transform="matrix(0 .99999 -1.00001 0 0 -333)"><tspan x="333.884" y="-1.822" style="stroke-width:.02645786">DMG-TRPG-USA</tspan></text>
    <text xml:space="preserve" style="font-style:normal;font-variant:normal;font-weight:400;font-stretch:normal;font-size:1.58747149px;line-height:1.25;font-family:sans-serif;-inkscape-font-specification:&quot;sans-serif, Normal&quot;;font-variant-ligatures:normal;font-variant-caps:normal;font-variant-numeric:normal;font-feature-settings:normal;text-align:start;letter-spacing:0;word-spacing:0;writing-mode:lr-tb;text-anchor:start;display:inline;fill:#000;fill-opacity:1;stroke:none;stroke-width:.02645786" x="354.744" y="-1.839" transform="matrix(0 .99999 -1.00001 0 0 -333)"><tspan x="354.744" y="-1.839" style="stroke-width:.02645786">Made in America</tspan></text>
  </g>
</svg>
